HIERARCHY
ROOT Hips
{
  OFFSET 51.5278 91.6844 5.52564
  CHANNELS 6 Xposition Yposition Zposition Zrotation Xrotation Yrotation
  JOINT spine
  {
    OFFSET 0 6.84637 0.3937
    CHANNELS 3 Zrotation Xrotation Yrotation
    JOINT spine1
    {
      OFFSET 0 9.49621 0
      CHANNELS 3 Zrotation Xrotation Yrotation
      JOINT spine2
      {
        OFFSET 0 9.09909 0
        CHANNELS 3 Zrotation Xrotation Yrotation
        JOINT Neck
        {
          OFFSET 0 23.3612 1.11378
          CHANNELS 3 Zrotation Xrotation Yrotation
          JOINT Head
          {
            OFFSET 0 7.05802 0
            CHANNELS 3 Zrotation Xrotation Yrotation
            End Site
            {
              OFFSET 0 17.0844 -5.63419
            }
          }
        }
        JOINT RightShoulder
        {
          OFFSET -3.83136 9.82631 -0.533491
          CHANNELS 3 Zrotation Xrotation Yrotation
          JOINT RightArm
          {
            OFFSET 0 12.8881 0
            CHANNELS 3 Zrotation Xrotation Yrotation
            JOINT RightArmRoll
            {
              OFFSET 0 6.50617 0
              CHANNELS 3 Zrotation Xrotation Yrotation
              JOINT RightForeArm
              {
                OFFSET 0 18.9501 0
                CHANNELS 3 Zrotation Xrotation Yrotation
                JOINT RightForeArmRoll
                {
                  OFFSET 0 7.30092 0
                  CHANNELS 3 Zrotation Xrotation Yrotation
                  JOINT RightHand
                  {
                    OFFSET 0 14.6514 0
                    CHANNELS 3 Zrotation Xrotation Yrotation
                    End Site
                    {
                      OFFSET 0 0 0
                    }
                  }
                }
              }
            }
          }
        }
        JOINT LeftShoulder
        {
          OFFSET 3.83136 9.82631 -0.533491
          CHANNELS 3 Zrotation Xrotation Yrotation
          JOINT LeftArm
          {
            OFFSET 0 12.8881 0
            CHANNELS 3 Zrotation Xrotation Yrotation
            JOINT LeftArmRoll
            {
              OFFSET 0 6.50617 0
              CHANNELS 3 Zrotation Xrotation Yrotation
              JOINT LeftForeArm
              {
                OFFSET 0 18.9501 0
                CHANNELS 3 Zrotation Xrotation Yrotation
                JOINT LeftForeArmRoll
                {
                  OFFSET 0 7.30092 0
                  CHANNELS 3 Zrotation Xrotation Yrotation
                  JOINT LeftHand
                  {
                    OFFSET 0 14.6514 0
                    CHANNELS 3 Zrotation Xrotation Yrotation
                    End Site
                    {
                      OFFSET 0 0 0
                    }
                  }
                }
              }
            }
          }
        }
      }
    }
  }
  JOINT RightUpLeg
  {
    OFFSET -6.06837 -1.11278 -0.933477
    CHANNELS 3 Zrotation Xrotation Yrotation
    JOINT RightUpLegRoll
    {
      OFFSET 0 17.1796 0
      CHANNELS 3 Zrotation Xrotation Yrotation
      JOINT RightLeg
      {
        OFFSET 0 -21.2743 0
        CHANNELS 3 Zrotation Xrotation Yrotation
        JOINT RightLegRoll
        {
          OFFSET 0 21.3439 0
          CHANNELS 3 Zrotation Xrotation Yrotation
          JOINT RightFoot
          {
            OFFSET 0 17.7652 0
            CHANNELS 3 Zrotation Xrotation Yrotation
            JOINT RightToeBase
            {
              OFFSET 0 14.8508 0
              CHANNELS 3 Zrotation Xrotation Yrotation
              End Site
              {
                OFFSET 0.0062947 7.19214 -0.829005
              }
            }
          }
        }
      }
    }
  }
  JOINT LeftUpLeg
  {
    OFFSET 6.06837 -1.11278 -0.933477
    CHANNELS 3 Zrotation Xrotation Yrotation
    JOINT LeftUpLegRoll
    {
      OFFSET 0 17.1797 0
      CHANNELS 3 Zrotation Xrotation Yrotation
      JOINT LeftLeg
      {
        OFFSET 0 21.2742 0
        CHANNELS 3 Zrotation Xrotation Yrotation
        JOINT LeftLegRoll
        {
          OFFSET 0 21.5412 0
          CHANNELS 3 Zrotation Xrotation Yrotation
          JOINT LeftFoot
          {
            OFFSET 0 17.5679 0
            CHANNELS 3 Zrotation Xrotation Yrotation
            JOINT LeftToeBase
            {
              OFFSET 0 14.8508 0
              CHANNELS 3 Zrotation Xrotation Yrotation
              End Site
              {
                OFFSET -0.0282102 7.19213 -0.829005
              }
            }
          }
        }
      }
    }
  }
}
MOTION
Frames: 8
Frame Time: 0.00208333
54.0386 91.5911 4.96635 2.11909 -2.07886 -4.49289 0.0654792 -1.68383 -0.122392 0.108009 0.635042 -0.25089 0.111074 2.28011 -0.2528 -5.69463 29.7758 2.52384 2.02361 -11.1456 0.407932 71.8906 5.73101 1.19215 100.181 2.73701 11.6801 2.07763e-007 -4.88349e-008 -3.7613e-006 12.5326 18.3366 -3.1567 -2.00121e-006 -1.87897e-006 -2.99999 8.02888 -4.95151 0.697711 -76.8029 7.24698 -1.00228 -96.6708 9.98483 -22.4048 -3.77323e-007 -5.56828e-008 1.85292e-006 -12.6787 2.67979 0.564214 3.8103e-006 -8.42186e-006 3 -8.02889 -4.95147 -0.697716 171.711 3.65193 3.5347 -180 7.01545e-015 178.914 177.379 5.97235 179.949 8.90174e-007 -2.0949e-006 0.055072 -18.3865 67.5411 19.1755 8.13649 25.2327 -3.48774 -178.14 -3.12001 1.62908 4.54188e-006 -4.6773e-006 -1.15208 -1.26864 -4.54489 0.0745068 1.96419e-006 -4.48545e-006 -0.0433049 18.6493 67.8725 -19.4131 -8.13649 25.2327 3.48773 
54.0418 91.5926 4.96762 2.11013 -2.08605 -4.5029 0.0669112 -1.6829 -0.123959 0.112341 0.636902 -0.2542 0.115448 2.28197 -0.256185 -5.69602 29.8094 2.52789 2.01522 -11.1523 0.407771 71.895 5.72189 1.18718 100.184 2.715 11.6585 2.07763e-007 -4.88349e-008 -3.7613e-006 12.5427 18.4354 -3.17214 -2.00121e-006 -1.87897e-006 -2.99999 8.02888 -4.95151 0.697711 -76.814 7.26211 -1.0066 -96.661 9.99645 -22.39 -3.77323e-007 -5.56828e-008 1.85292e-006 -12.6915 2.66641 0.562135 3.8103e-006 -8.42186e-006 3 -8.02889 -4.95147 -0.697716 171.719 3.64206 3.52967 -180 7.01545e-015 178.914 177.38 5.96486 179.949 8.90174e-007 -2.0949e-006 0.0549026 -18.3856 67.5399 19.1745 8.13649 25.2327 -3.48774 -178.131 -3.1286 1.62098 4.54188e-006 -4.6773e-006 -1.15208 -1.27296 -4.54461 0.0741702 1.96419e-006 -4.48545e-006 -0.0433049 18.6493 67.8725 -19.4131 -8.13649 25.2327 3.48773 
54.0437 91.5934 4.96703 2.10109 -2.09292 -4.513 0.0683819 -1.68204 -0.125573 0.116813 0.638608 -0.25761 0.119964 2.28368 -0.25967 -5.69995 29.8433 2.53324 2.00863 -11.159 0.408101 71.8987 5.71326 1.18255 100.187 2.69276 11.6369 2.07763e-007 -4.88349e-008 -3.7613e-006 12.5529 18.5343 -3.18765 -2.00121e-006 -1.87897e-006 -2.99999 8.02888 -4.95151 0.697711 -76.8263 7.27676 -1.01048 -96.6502 10.0079 -22.3754 -3.77323e-007 -5.56828e-008 1.85292e-006 -12.7046 2.65133 0.559806 3.8103e-006 -8.42186e-006 3 -8.02889 -4.95147 -0.697716 171.727 3.6326 3.52458 -180 7.01545e-015 178.914 177.381 5.95749 179.95 8.90174e-007 -2.0949e-006 0.0547338 -18.3847 67.5388 19.1735 8.13649 25.2327 -3.48774 -178.122 -3.13689 1.61276 4.54188e-006 -4.6773e-006 -1.15208 -1.27739 -4.54434 0.0738257 1.96419e-006 -4.48545e-006 -0.0433049 18.6492 67.8724 -19.413 -8.13649 25.2327 3.48773 
54.0152 91.5949 4.96108 2.092 -2.09957 -4.52317 0.0698799 -1.68124 -0.12722 0.121385 0.640206 -0.261088 0.12458 2.28527 -0.263227 -5.70565 29.8773 2.53951 2.0033 -11.1658 0.408774 71.9018 5.70499 1.17816 100.19 2.67034 11.6154 2.07763e-007 -4.88349e-008 -3.7613e-006 12.5633 18.6332 -3.20322 -2.00121e-006 -1.87897e-006 -2.99999 8.02888 -4.95151 0.697711 -76.8395 7.29105 -1.01407 -96.6388 10.0192 -22.3611 -3.77323e-007 -5.56828e-008 1.85292e-006 -12.7179 2.63506 0.557304 3.8103e-006 -8.42186e-006 3 -8.02889 -4.95147 -0.697716 171.735 3.62342 3.51944 -180 7.01545e-015 178.914 177.382 5.95016 179.95 8.90174e-007 -2.0949e-006 0.0545655 -18.3837 67.5376 19.1725 8.13649 25.2327 -3.48774 -178.113 -3.14496 1.60446 4.54188e-006 -4.6773e-006 -1.15208 -1.28188 -4.54407 0.0734758 1.96419e-006 -4.48545e-006 -0.0433049 18.6492 67.8725 -19.413 -8.13649 25.2327 3.48773 
54.0184 91.604 4.96194 2.08289 -2.10609 -4.53338 0.0713934 -1.68046 -0.128885 0.126012 0.641744 -0.264606 0.129252 2.28681 -0.266825 -5.71237 29.9114 2.5463 1.9987 -11.1726 0.409643 71.9048 5.69691 1.17391 100.194 2.64782 11.594 2.07763e-007 -4.88349e-008 -3.7613e-006 12.5737 18.7322 -3.21884 -2.00121e-006 -1.87897e-006 -2.99999 8.02888 -4.95151 0.697711 -76.8531 7.30515 -1.01749 -96.6269 10.0304 -22.3468 -3.77323e-007 -5.56828e-008 1.85292e-006 -12.7313 2.6181 0.554702 3.8103e-006 -8.42186e-006 3 -8.02889 -4.95147 -0.697716 171.744 3.61441 3.51427 -180 7.01545e-015 178.914 177.382 5.9429 179.95 8.90174e-007 -2.0949e-006 0.0543974 -18.3828 67.5365 19.1715 8.13649 25.2327 -3.48774 -178.104 -3.1529 1.5961 4.54188e-006 -4.6773e-006 -1.15208 -1.28641 -4.5438 0.0731228 1.96419e-006 -4.48545e-006 -0.0433049 18.6493 67.8725 -19.4129 -8.13649 25.2327 3.48773 
54.048 91.6015 4.97301 2.07376 -2.11257 -4.5436 0.0729109 -1.6797 -0.130555 0.130654 0.643266 -0.268134 0.133939 2.28833 -0.270432 -5.71936 29.9455 2.55323 1.99428 -11.1794 0.410562 71.9076 5.68889 1.1697 100.198 2.62527 11.5725 2.07763e-007 -4.88349e-008 -3.7613e-006 12.5842 18.8312 -3.23449 -2.00121e-006 -1.87897e-006 -2.99999 8.02888 -4.95151 0.697711 -76.8669 7.3192 -1.02087 -96.615 10.0416 -22.3326 -3.77323e-007 -5.56828e-008 1.85292e-006 -12.7447 2.60098 0.552075 3.8103e-006 -8.42186e-006 3 -8.02889 -4.95147 -0.697716 171.752 3.60544 3.5091 -180 7.01545e-015 178.914 177.383 5.93564 179.951 8.90174e-007 -2.0949e-006 0.0542293 -18.3819 67.5354 19.1705 8.13649 25.2327 -3.48774 -178.095 -3.16081 1.58774 4.54188e-006 -4.6773e-006 -1.15208 -1.29095 -4.54354 0.072769 1.96419e-006 -4.48545e-006 -0.0433049 18.6493 67.8725 -19.4128 -8.13649 25.2327 3.48773 
54.0403 91.5886 4.96981 2.06465 -2.11912 -4.55379 0.0744206 -1.67892 -0.132216 0.135268 0.644818 -0.271643 0.138598 2.28989 -0.274019 -5.72584 29.9795 2.55991 1.9895 -11.1862 0.411382 71.9106 5.68076 1.16542 100.202 2.60276 11.5511 2.07763e-007 -4.88349e-008 -3.7613e-006 12.5947 18.9302 -3.25016 -2.00121e-006 -1.87897e-006 -2.99999 8.02888 -4.95151 0.697711 -76.8804 7.33335 -1.02433 -96.6032 10.0528 -22.3183 -3.77323e-007 -5.56828e-008 1.85292e-006 -12.7581 2.58419 0.549498 3.8103e-006 -8.42186e-006 3 -8.02889 -4.95147 -0.697716 171.761 3.59639 3.50395 -180 7.01545e-015 178.914 177.384 5.92836 179.951 8.90174e-007 -2.0949e-006 0.0540611 -18.381 67.5342 19.1695 8.13649 25.2327 -3.48774 -178.086 -3.16879 1.5794 4.54188e-006 -4.6773e-006 -1.15208 -1.29547 -4.54327 0.0724168 1.96419e-006 -4.48545e-006 -0.0433049 18.6493 67.8725 -19.4128 -8.13649 25.2327 3.48773 
54.0446 91.5921 4.9671 2.05557 -2.12583 -4.56395 0.075911 -1.6781 -0.133854 0.139812 0.646448 -0.275101 0.143185 2.29152 -0.277556 -5.73107 30.0135 2.56594 1.98382 -11.1929 0.411957 71.9139 5.67238 1.16096 100.205 2.58038 11.5296 2.07763e-007 -4.88349e-008 -3.7613e-006 12.6053 19.0291 -3.26583 -2.00121e-006 -1.87897e-006 -2.99999 8.02888 -4.95151 0.697711 -76.8933 7.34774 -1.02801 -96.592 10.0641 -22.3039 -3.77323e-007 -5.56828e-008 1.85292e-006 -12.7714 2.56826 0.547046 3.8103e-006 -8.42186e-006 3 -8.02889 -4.95147 -0.697716 171.769 3.58713 3.49882 -180 7.01545e-015 178.914 177.385 5.92102 179.952 8.90174e-007 -2.0949e-006 0.0538927 -18.3801 67.5331 19.1685 8.13649 25.2327 -3.48774 -178.077 -3.17692 1.57111 4.54188e-006 -4.6773e-006 -1.15208 -1.29994 -4.543 0.0720684 1.96419e-006 -4.48545e-006 -0.0433049 18.6493 67.8725 -19.4127 -8.13649 25.2327 3.48773 
